PathFileType	4	(X/Y/Z)	/Users/itak/Documents/Research/Walk-IL/dataset/trc/00305_00010.trc
DataRate	CameraRate	NumFrames	NumMarkers	Units	OrigDataRate	OrigDataStartFrame	OrigNumFrames
100.000000	100.000000	4	55	mm	100.000000	285	456
Frame#	Time	RPSI			LPSI			L3			STRN			T10			C7			CLAV			RBAK			LBAK			LSHO			LUPA			LAEL			LAOL			LWPS			LFRA			LIFD			LHPS			LHTS			RSHO			RUPA			RAEL			RAOL			RWTS			RWPS			RFRA			RIFD			RHPS			RBHD			LFHD			RFHD			LBHD			LHIP			RASI			LASI			LKNE			LTHI			LANK			LTIP			LTOE			LMT1			LMT5			LHEE			RKNE			RTHI			RANK			RTIP			RTOE			RMT1			RMT5			LWTS			RHTS			RHEE			RHIP			*53			*54			
		X1	Y1	Z1	X2	Y2	Z2	X3	Y3	Z3	X4	Y4	Z4	X5	Y5	Z5	X6	Y6	Z6	X7	Y7	Z7	X8	Y8	Z8	X9	Y9	Z9	X10	Y10	Z10	X11	Y11	Z11	X12	Y12	Z12	X13	Y13	Z13	X14	Y14	Z14	X15	Y15	Z15	X16	Y16	Z16	X17	Y17	Z17	X18	Y18	Z18	X19	Y19	Z19	X20	Y20	Z20	X21	Y21	Z21	X22	Y22	Z22	X23	Y23	Z23	X24	Y24	Z24	X25	Y25	Z25	X26	Y26	Z26	X27	Y27	Z27	X28	Y28	Z28	X29	Y29	Z29	X30	Y30	Z30	X31	Y31	Z31	X32	Y32	Z32	X33	Y33	Z33	X34	Y34	Z34	X35	Y35	Z35	X36	Y36	Z36	X37	Y37	Z37	X38	Y38	Z38	X39	Y39	Z39	X40	Y40	Z40	X41	Y41	Z41	X42	Y42	Z42	X43	Y43	Z43	X44	Y44	Z44	X45	Y45	Z45	X46	Y46	Z46	X47	Y47	Z47	X48	Y48	Z48	X49	Y49	Z49	X50	Y50	Z50	X51	Y51	Z51	X52	Y52	Z52	X53	Y53	Z53	X54	Y54	Z54	X55	Y55	Z55	

286	2.85	54.44920349121094	975.1771850585938	679.9878540039062	-51.29605484008789	939.57080078125	546.04248046875	17.9730110168457	1027.050903320312	605.7006225585938	185.5544891357422	1199.50341796875	422.3755187988281	13.72837448120117	1141.881103515625	618.6178588867188	29.74428939819336	1385.237426757812	567.2240600585938	137.3803100585938	1300.43408203125	459.637939453125	53.09199142456055	1253.007690429688	662.4554443359375	-59.29286956787109	1345.421264648438	513.4830322265625	-41.78499221801758	1348.025390625	410.0774230957031	-128.5480804443359	1238.264282226562	405.9583740234375	-169.053955078125	1043.743774414062	430.6794738769531	-139.2136688232422	1034.745239257812	511.7193298339844	-210.3188171386719	808.6207885742188	422.0973205566406	-193.5139465332031	940.5254516601562	430.7919006347656	-180.2580718994141	626.96142578125	445.9082641601562	-225.204833984375	723.133056640625	435.1342468261719	-168.5396575927734	706.4374389648438	405.232666015625	193.6697540283203	1366.417358398438	621.9924926757812	243.7412567138672	1308.720947265625	668.67578125	338.8572387695312	1052.029052734375	673.2467651367188	254.9824371337891	1024.441162109375	636.4608764648438	441.0416259765625	929.346923828125	481.8125610351562	469.2362060546875	891.4601440429688	553.75830078125	384.7521667480469	1004.2451171875	641.6112060546875	522.9412231445312	791.5263671875	387.8552551269531	526.1533203125	822.3160400390625	484.8339538574219	124.984504699707	1548.072021484375	587.1844482421875	92.79088592529297	1580.1064453125	378.0883178710938	175.23681640625	1581.304809570312	421.4480590820312	-5.241019248962402	1535.718994140625	518.5218505859375	-49.7869987487793	885.1825561523438	430.3157043457031	254.0652313232422	923.503662109375	578.013671875	88.32179260253906	905.2979125976562	387.1241149902344	156.1567230224609	470.8994750976562	322.5718383789062	82.62550354003906	591.921875	344.4799194335938	259.0379638671875	39.09038925170898	297.8282775878906	196.1085662841797	245.3500213623047	306.210693359375	409.6510314941406	103.2704238891602	167.1392211914062	412.0993957519531	69.56039428710938	239.0815582275391	311.1481018066406	68.38640594482422	191.3971405029297	286.1387023925781	26.57968902587891	367.1858215332031	139.9631958007812	465.5320434570312	736.5931396484375	222.3854217529297	717.0518188476562	697.0552368164062	-16.50547981262207	54.85480880737305	850.1553344726562	111.1623687744141	342.3072814941406	746.7843017578125	80.9659423828125	40.92646026611328	676.1552734375	12.08086109161377	41.78598403930664	688.8246459960938	69.81038665771484	35.10242080688477	792.0905151367188	-137.7256927490234	804.3768920898438	415.6715698242188	520.4347534179688	858.6845092773438	424.2431640625	-88.31454467773438	61.87457275390625	855.6050415039062	200.1863098144531	933.5310668945312	706.1619262695312	nan	nan	nan	nan	nan	nan	
287	2.86	62.18874740600586	974.3197631835938	671.969970703125	-44.18375015258789	939.008544921875	538.4447631835938	25.5450553894043	1025.592651367188	597.8027954101562	191.0590209960938	1198.263671875	414.1370239257812	20.88651084899902	1139.97314453125	611.25244140625	35.11351013183594	1383.528076171875	560.0651245117188	142.7110748291016	1299.118041992188	451.3968505859375	59.52417373657227	1251.413696289062	655.0087890625	-54.13913345336914	1343.082397460938	507.0302734375	-37.48968505859375	1345.694702148438	403.456787109375	-123.5958404541016	1235.262451171875	400.5661926269531	-162.9152679443359	1040.787719726562	426.1116943359375	-131.4330139160156	1031.697387695312	506.5467834472656	-206.2430267333984	806.0573120117188	420.8357849121094	-188.1349639892578	937.7948608398438	427.5297546386719	-177.9414215087891	624.6181030273438	447.62255859375	-221.7952575683594	721.0223999023438	435.8045959472656	-166.1112670898438	702.9886474609375	405.0741577148438	199.5040283203125	1365.358154296875	613.8251342773438	249.8428039550781	1307.494262695312	660.1697387695312	344.4365234375	1050.6728515625	664.8386840820312	260.3278503417969	1023.086853027344	628.6196899414062	445.0794067382812	931.0013427734375	471.3020629882812	474.3918151855469	892.1737670898438	542.3240356445312	390.1809692382812	1003.4248046875	632.5134887695312	526.9302978515625	795.8546752929688	373.7936096191406	531.0767211914062	824.6414794921875	471.4177856445312	129.9920654296875	1546.849487304688	579.8345336914062	96.44420623779297	1579.184692382812	370.9331359863281	179.1746826171875	1580.513061523438	413.8421325683594	-0.6407164335250854	1534.35498046875	511.9159545898438	-43.15690994262695	884.6233520507812	422.6121215820312	261.8310546875	921.7481689453125	569.8785400390625	95.14654541015625	903.7389526367188	379.2803955078125	161.8645477294922	470.6900329589844	313.5441284179688	88.96348571777344	591.7618408203125	335.6612548828125	260.1578979492188	38.57071685791016	296.1536254882812	199.8983764648438	243.9879150390625	300.6352233886719	409.1676025390625	95.61294555664062	160.8663177490234	412.6631469726562	63.87759780883789	233.4743347167969	310.621826171875	63.56698989868164	187.8150482177734	288.68115234375	27.1922492980957	365.2088317871094	144.7397918701172	464.9545593261719	731.4686279296875	228.7530364990234	715.5730590820312	689.9600219726562	-15.5254077911377	57.03264236450195	849.9158325195312	114.7120208740234	342.0812377929688	742.9765625	81.13941955566406	40.85326766967773	675.9902954101562	12.29205513000488	42.11975860595703	688.6749267578125	70.28641510009766	35.35611343383789	791.8626708984375	-133.9524688720703	800.895263671875	413.0281982421875	524.281005859375	862.1846313476562	411.5908813476562	-87.30824279785156	65.22239685058594	855.5601806640625	207.8038024902344	932.0120239257812	698.0027465820312	nan	nan	nan	nan	nan	nan	
288	2.87	70.13340759277344	973.7307739257812	663.7815551757812	-36.99226760864258	939.0635986328125	530.6996459960938	33.22226715087891	1024.462158203125	589.7428588867188	196.5946655273438	1197.35693359375	405.6895446777344	28.12693023681641	1138.3369140625	603.7033081054688	40.45223999023438	1382.119384765625	552.7804565429688	148.0359497070312	1298.091552734375	442.9914245605469	66.00729370117188	1250.106689453125	647.4177856445312	-48.9841194152832	1341.004028320312	500.4510192871094	-33.18886566162109	1343.639282226562	396.7023010253906	-118.6322784423828	1232.504272460938	394.9877319335938	-156.7320251464844	1038.048095703125	421.20654296875	-123.6243591308594	1028.945678710938	500.9611206054688	-201.7467346191406	803.7255859375	419.0817260742188	-182.5191497802734	935.2958374023438	423.8363952636719	-175.0173797607422	622.6233520507812	449.0241394042969	-217.8916625976562	719.171875	435.9594116210938	-163.1136627197266	699.8325805664062	404.5733642578125	205.31884765625	1364.656494140625	605.5357666015625	255.8662567138672	1306.631225585938	651.5991821289062	349.8092651367188	1049.605834960938	656.545654296875	265.4219055175781	1022.067321777344	620.857177734375	448.7081909179688	932.46044921875	461.1178588867188	479.0949401855469	892.8358764648438	531.2787475585938	395.3469543457031	1002.808532714844	623.573486328125	530.2208862304688	799.714111328125	360.3838195800781	535.3969116210938	826.697265625	458.54638671875	134.9094085693359	1545.950927734375	572.3646240234375	100.007453918457	1578.5673828125	363.6943359375	183.0295715332031	1580.06005859375	406.1330871582031	3.883668899536133	1533.312744140625	505.1960754394531	-36.61014175415039	884.7349243164062	414.7192077636719	269.675048828125	920.19775390625	561.3598022460938	101.916389465332	902.6100463867188	371.2203063964844	167.5018920898438	470.9067077636719	304.2901916503906	95.15415954589844	592.1242065429688	326.6059265136719	260.9100646972656	38.38134765625	295.2539367675781	203.6093597412109	243.0447845458984	295.2390747070312	408.9432373046875	87.54487609863281	155.9212036132812	413.0762939453125	57.95697784423828	229.2240753173828	310.1268920898438	58.82590866088867	185.2349548339844	290.6167602539062	28.12543869018555	364.0732727050781	149.7254180908203	464.5238647460938	725.8735961914062	235.2623138427734	714.2164306640625	682.4039306640625	-14.39562892913818	59.60878753662109	849.6070556640625	118.4756774902344	342.0553283691406	738.8466796875	81.33879089355469	40.78625869750977	675.7821655273438	12.55258464813232	42.51408004760742	688.480712890625	70.85877227783203	35.67405700683594	791.5763549804688	-129.7714996337891	797.6868896484375	410.0454406738281	527.55419921875	865.2697143554688	399.4258728027344	-86.07444000244141	69.06307220458984	855.4397583007812	215.5691528320312	930.6172485351562	689.5751953125	nan	nan	nan	nan	nan	nan	
289	2.88	78.33798980712891	973.42919921875	655.44775390625	-29.72073554992676	939.7704467773438	522.902099609375	41.01519012451172	1023.704895019531	581.5795288085938	202.1455383300781	1196.843505859375	397.0341491699219	35.45077514648438	1137.0341796875	595.9935302734375	45.77621078491211	1381.050903320312	545.3798828125	153.3413543701172	1297.409423828125	434.4500122070312	72.56441497802734	1249.132202148438	639.7040405273438	-43.82104110717773	1339.243286132812	493.7595520019531	-28.87333106994629	1341.912719726562	389.826904296875	-113.6475982666016	1230.060913085938	389.2125244140625	-150.5158233642578	1035.601806640625	415.9761962890625	-115.8127365112305	1026.575561523438	494.9951477050781	-196.8279876708984	801.6759033203125	416.7864990234375	-176.6701507568359	933.0910034179688	419.7066345214844	-171.4206695556641	621.0181884765625	450.0027465820312	-213.4781036376953	717.6143188476562	435.521728515625	-159.4928283691406	697.0394897460938	403.6561584472656	211.1195373535156	1364.3642578125	597.1218872070312	261.8265686035156	1306.196044921875	642.9568481445312	354.9737548828125	1048.89794921875	648.3737182617188	270.2710266113281	1021.473205566406	613.1611938476562	451.9596862792969	933.7314453125	451.2754821777344	483.3505249023438	893.4607543945312	520.6565551757812	400.2536010742188	1002.4462890625	614.80322265625	532.8355102539062	803.0285034179688	347.6906127929688	539.117431640625	828.4502563476562	446.27880859375	139.738037109375	1545.39697265625	564.7825927734375	103.4787292480469	1578.278930664062	356.3831787109375	186.7993469238281	1579.965209960938	398.3291931152344	8.329818725585938	1532.618896484375	498.3720703125	-30.16937065124512	885.5718383789062	406.7193298339844	277.5403442382812	918.8566284179688	552.4221801757812	108.5628433227539	901.9844970703125	362.9326171875	173.0064239501953	471.5194396972656	294.8887939453125	101.1016082763672	592.9962158203125	317.4195861816406	261.5260009765625	38.48551177978516	294.7221984863281	207.2993927001953	242.56884765625	289.8531494140625	409.3881225585938	79.65598297119141	152.2822875976562	413.6476135253906	52.24557495117188	226.2793884277344	310.0666809082031	54.50424194335938	183.4106750488281	292.048583984375	29.2730827331543	363.4015808105469	154.9376983642578	464.2589416503906	719.7758178710938	241.9341583251953	712.9929809570312	674.3361206054688	-13.0877513885498	62.60391998291016	849.2101440429688	122.4915008544922	342.2540893554688	734.3756713867188	81.55438995361328	40.72623062133789	675.5322265625	12.87868785858154	42.97130966186523	688.2353515625	71.54409790039062	36.07398986816406	791.2246704101562	-125.1597213745117	794.8305053710938	406.6739196777344	530.3060302734375	867.8938598632812	387.7943115234375	-84.58937072753906	73.43202209472656	855.1926879882812	223.5287170410156	929.3643798828125	680.8375244140625	nan	nan	nan	nan	nan	nan	
